<?xml version="1.0" encoding="UTF-8"?><svg id="uuid-828ae564-2829-4a76-b249-fc698490c108" xmlns="http://www.w3.org/2000/svg" xmlns:xlink="http://www.w3.org/1999/xlink" viewBox="0 0 346.22 318.67"><defs><style>.uuid-21a3c0d4-9b3c-4c04-8485-bde1c04d1e63{fill:url(#uuid-80c1eb9e-8354-4128-a477-36175e263a13);}.uuid-787b20f6-8cf3-4670-9540-d4c4b5d19544{fill:url(#uuid-6dc2414d-959d-4d8c-9e9e-1d94e944839a);}.uuid-cc8b0832-2c60-49f9-b10d-02f20eefac65{fill:url(#uuid-77298aaf-d358-4188-99b2-3775e118bbe0);}</style><linearGradient id="uuid-6dc2414d-959d-4d8c-9e9e-1d94e944839a" x1="103.16" y1="115.28" x2="234.12" y2="289.08" gradientTransform="matrix(1, 0, 0, 1, 0, 0)" gradientUnits="userSpaceOnUse"><stop offset="0" stop-color="#6023e5"/><stop offset="1" stop-color="#dc54c2"/></linearGradient><linearGradient id="uuid-77298aaf-d358-4188-99b2-3775e118bbe0" x1="94.65" y1="68.93" x2="245.6" y2="269.24" xlink:href="#uuid-6dc2414d-959d-4d8c-9e9e-1d94e944839a"/><linearGradient id="uuid-80c1eb9e-8354-4128-a477-36175e263a13" x1="68.93" y1="34.82" x2="277.33" y2="311.37" xlink:href="#uuid-6dc2414d-959d-4d8c-9e9e-1d94e944839a"/></defs><g id="uuid-c3fc402a-dcd7-439a-9ec4-1ec7da0f9f2e"><g><path class="uuid-787b20f6-8cf3-4670-9540-d4c4b5d19544" d="M173.13,84.69c48.49,0,87.8,39.31,87.8,87.8,0,15.14-3.84,29.39-10.6,41.83-.75,1.39-2.64,4.03-3.46,5.37l20.47,16.1,14.12,10.85s-1.51,2.94-5.37,7.81c-3.91,4.95-9.02,9.81-9.03,9.81l-13.46-11.15-29.36-24.56h0l-9.02-7.22c1.17-1.02,2.49-2.22,3.58-3.32l.03-.03c2.79-2.82,5.2-6,7.43-9.29,1.44-2.12,2.83-4.41,4.01-6.7,4.56-8.78,7.15-18.74,7.19-29.28,.02-5.45-.64-10.74-1.9-15.81-6.97-27.97-32.32-48.76-62.43-48.76s-55.4,20.75-62.41,48.68c-1.28,5.09-1.94,10.41-1.92,15.89,.04,11.1,2.91,21.56,7.93,30.67,1.28,2.34,2.78,4.67,4.33,6.82,3.27,4.54,6.94,8.78,11.27,12.32l-14.69,12.24-.03,.02-3.43,2.86-.06-.06-20.04,16.79-4.56,3.72-8.22,7.29s-4.23-3.99-8.21-8.88c-3.93-4.81-5.12-6.4-5.12-6.4l12.87-11.17,20.17-16.37c-.89-1.38-3.39-5.24-4.21-6.67-7.3-12.8-11.46-27.61-11.46-43.39,0-48.49,39.31-87.8,87.8-87.8Z"/><path class="uuid-cc8b0832-2c60-49f9-b10d-02f20eefac65" d="M277.84,173.77c0,16.68-3.87,32.76-11.19,47.23l20.7,16.79c10.63-18.93,16.7-40.76,16.7-64.01,0-72.32-58.62-130.94-130.94-130.94S42.17,101.45,42.17,173.77c0,24.17,6.55,46.81,17.98,66.24l20.62-16.72c-8.09-15.05-12.39-31.95-12.39-49.52,0-27.98,10.89-54.28,30.68-74.06,19.78-19.78,46.08-30.68,74.06-30.68s54.28,10.89,74.06,30.68c19.78,19.78,30.68,46.08,30.68,74.06Z"/><path class="uuid-21a3c0d4-9b3c-4c04-8485-bde1c04d1e63" d="M295.51,50.7C262.82,18.01,219.35,0,173.11,0S83.4,18.01,50.7,50.7C18.01,83.4,0,126.87,0,173.11c0,27.51,6.62,54.89,19.14,79.19,12.11,23.5,29.77,44.25,51.07,60.02l8.58,6.35,84.98-82.48c-7.81-1.14-15.16-3.7-21.79-7.4l-63.87,55.07c-32.07-27.59-50.93-68.25-50.93-110.76C27.17,92.64,92.64,27.17,173.11,27.17s145.94,65.47,145.94,145.94c0,42.42-17.89,81.75-49.43,109.48l-65.04-53.97c-5.96,3.37-12.52,5.81-19.47,7.13l83.91,81.9,8.67-6.58c20.83-15.81,38.07-36.45,49.88-59.7,12.39-24.39,18.66-50.72,18.66-78.26,0-46.24-18.01-89.71-50.7-122.41Z"/></g></g></svg>